<?xml version="1.0" encoding="utf-8"?>
<!-- Generator: Adobe Illustrator 26.0.1, SVG Export Plug-In . SVG Version: 6.00 Build 0)  -->
<svg version="1.1" id="Слой_1" xmlns="http://www.w3.org/2000/svg" xmlns:xlink="http://www.w3.org/1999/xlink" x="0px" y="0px"
	 viewBox="0 0 60 52" style="enable-background:new 0 0 60 52;" xml:space="preserve">
<style type="text/css">
	.st0{fill:#FFFFFF;}
</style>
<path class="st0" d="M33.94,32.95L33.94,32.95c-2.3,2.3-6.03,2.3-8.33,0L4.76,12.1c-2.3-2.3-2.3-6.03,0-8.33l0,0
	c2.3-2.3,6.03-2.3,8.33,0l20.85,20.85C36.24,26.92,36.24,30.65,33.94,32.95z"/>
<path class="st0" d="M25.77,32.95L25.77,32.95c-2.3-2.3-2.3-6.03,0-8.33L46.62,3.77c2.3-2.3,6.03-2.3,8.33,0l0,0
	c2.3,2.3,2.3,6.03,0,8.33L34.1,32.95C31.8,35.26,28.07,35.26,25.77,32.95z"/>
</svg>
